<?xml version="1.0" encoding="utf-8"?>
<!-- Generator: Adobe Illustrator 23.0.2, SVG Export Plug-In . SVG Version: 6.00 Build 0)  -->
<svg version="1.1" xmlns="http://www.w3.org/2000/svg" xmlns:xlink="http://www.w3.org/1999/xlink" x="0px" y="0px"
	 viewBox="0 0 883.55 390.95" style="enable-background:new 0 0 883.55 390.95;" xml:space="preserve">
<style type="text/css">
	.st0{fill:#50ABF2;}
	.st1{fill:#FFFFFF;}
	.st2{font-family:'Futura-Bold';}
	.st3{font-size:101.3769px;}
</style>
<g id="Layer_1">
</g>
<g id="Layer_2">
	<g>
		<path class="st0" d="M225.59,360.36c0,0,31.65-21.1,52.75-40.09c21.1-18.99,35.87-61.19,40.09-78.07l14.77-6.33
			c0,0-10.55-75.96-31.65-97.06c0,0,11.61-36.93-22.16-47.48c0,0,8.44-73.85-99.17-63.3c0,0-52.75,6.33-86.51,73.85l-33.76,63.3
			h14.77c0,0-18.99,46.42-40.09,73.85c0,0,52.75-2.11,65.41,2.11c0,0,35.87,71.74,46.42,48.53c0,0,44.31,52.75,50.64,73.85
			l16.88-21.1L225.59,360.36z"/>
		<path class="st1" d="M275.18,104c0,0,10.55,18.99,12.66,29.54c0,0,8.44-8.44,4.22-21.1C292.06,112.44,286.26,101.3,275.18,104z"/>
		<path class="st1" d="M298.39,167.3v46.42l-8.44-2.11v31.65c0,0-37.98,14.77-44.31,31.65l-8.44-16.88l-12.66,8.44V230.6
			c0,0-27.43,2.11-35.87-25.32c0,0-40.09-21.1-31.65-65.41c0,0-14.77,12.66-14.77,25.32c0,0-14.77-37.98-10.55-56.97
			c0,0,10.55-25.32,65.41-25.32c0,0-16.88-16.88-29.54-18.99c0,0,29.54-12.66,56.97,21.1c0,0,4.22-12.66-4.22-23.21
			c0,0,21.1,10.55,31.65,35.87c0,0,16.88-2.11,8.44-35.87c0,0-4.22-18.99-40.09-23.21c0,0-69.63-8.44-99.17,46.42L89.5,146.2h10.55
			c0,0-31.65,69.63-40.09,78.07h25.32c0,0,8.44-21.1,14.77-25.32c0,0,6.33,61.19,37.98,75.96l12.66-8.44c0,0,44.31,63.3,46.42,75.96
			c0,0-16.88-78.07-40.09-105.5l-12.66,6.33c0,0-29.54-29.54-25.32-73.85c0,0,18.99,37.98,29.54,48.53l8.44-12.66
			c0,0,35.87,42.2,37.98,73.85l6.33-14.77l27.43,78.07l25.32-37.98l4.22,14.77c0,0,40.09-37.98,40.09-94.95l12.66-6.33
			C311.05,217.94,313.16,175.74,298.39,167.3z"/>
		<path class="st1" d="M150.69,129.32l25.32-33.76c0,0-23.21,0-31.65,12.66L150.69,129.32z"/>
		<path class="st1" d="M245.64,239.04h37.98c0,0,4.22-25.32-18.99-25.32S245.64,239.04,245.64,239.04z"/>
		<path class="st1" d="M289.95,205.28v-35.87c0,0-16.88,4.22-18.99,12.66c0,0,2.11,16.88,10.55,23.21H289.95z"/>
		<path class="st1" d="M252.81,165l33.45-0.92c-20.16-14.22-19.25-26.58-19.25-26.58c5.04-2.75,5.96-11.46,5.96-11.46
			c1.37-15.58-12.83-18.33-12.83-18.33c0,6.87-4.12,8.71-4.12,8.71c-10.08-12.83-28.41-20.87-28.41-20.87v12.62
			c-21.54-23.37-35.75-12.62-35.75-12.62c-11.46,8.44-15.85,22.52-15.85,22.52c-5.76,13.29,0,36.39,0,36.39
			c20.07,5.58,29.6,23.83,29.6,23.83c0.92,22,8.25,30.7,8.25,30.7c8.25,14.67,28.41,4.72,28.41,4.72
			c16.96-9.03,22.36-32.21,22.36-32.21C252.16,175.09,252.81,165,252.81,165z M224.39,148.96c0,0-27.96-7.33-28.41-22.91
			c0,0,21.08,11.92,38.5,11.46L224.39,148.96z"/>
	</g>
	<text transform="matrix(1 0 0 1 368.7989 235.1789)" class="st0 st2 st3">ANGULO</text>
</g>
</svg>
